<svg width="512" height="575" viewBox="0 0 512 575" fill="none" xmlns="http://www.w3.org/2000/svg">
<rect width="512" height="575" fill="white"/>
<rect x="63" width="386" height="575" fill="white"/>
<rect x="86" y="19" width="340" height="537" fill="white" stroke="black" stroke-width="4"/>
<path d="M106.523 82V52.9091H116.693C118.72 52.9091 120.391 53.2595 121.707 53.9602C123.024 54.6515 124.004 55.5843 124.648 56.7585C125.292 57.9233 125.614 59.2159 125.614 60.6364C125.614 61.8864 125.391 62.9186 124.946 63.733C124.51 64.5473 123.933 65.1913 123.213 65.6648C122.503 66.1383 121.731 66.4886 120.898 66.7159V67C121.788 67.0568 122.683 67.3693 123.582 67.9375C124.482 68.5057 125.235 69.3201 125.841 70.3807C126.447 71.4413 126.75 72.7386 126.75 74.2727C126.75 75.7311 126.419 77.0426 125.756 78.2074C125.093 79.3722 124.046 80.2955 122.616 80.9773C121.187 81.6591 119.326 82 117.034 82H106.523ZM110.045 78.875H117.034C119.335 78.875 120.969 78.4299 121.935 77.5398C122.91 76.6402 123.398 75.5511 123.398 74.2727C123.398 73.2879 123.147 72.3788 122.645 71.5455C122.143 70.7027 121.428 70.0303 120.5 69.5284C119.572 69.017 118.473 68.7614 117.205 68.7614H110.045V78.875ZM110.045 65.6932H116.58C117.64 65.6932 118.597 65.4848 119.449 65.0682C120.311 64.6515 120.992 64.0644 121.494 63.3068C122.006 62.5492 122.261 61.6591 122.261 60.6364C122.261 59.358 121.816 58.2737 120.926 57.3835C120.036 56.4839 118.625 56.0341 116.693 56.0341H110.045V65.6932ZM151.629 52.9091H155.152V72.1705C155.152 74.1591 154.683 75.9347 153.746 77.4972C152.818 79.0502 151.506 80.2765 149.811 81.1761C148.116 82.0663 146.127 82.5114 143.845 82.5114C141.563 82.5114 139.574 82.0663 137.879 81.1761C136.184 80.2765 134.868 79.0502 133.93 77.4972C133.002 75.9347 132.538 74.1591 132.538 72.1705V52.9091H136.061V71.8864C136.061 73.3068 136.374 74.571 136.999 75.679C137.624 76.7775 138.514 77.6439 139.669 78.2784C140.834 78.9034 142.226 79.2159 143.845 79.2159C145.464 79.2159 146.857 78.9034 148.021 78.2784C149.186 77.6439 150.076 76.7775 150.692 75.679C151.317 74.571 151.629 73.3068 151.629 71.8864V52.9091ZM182.073 62C181.761 61.0436 181.349 60.1866 180.837 59.429C180.335 58.6619 179.734 58.0085 179.033 57.4688C178.342 56.929 177.556 56.517 176.675 56.233C175.795 55.9489 174.829 55.8068 173.778 55.8068C172.054 55.8068 170.487 56.2519 169.076 57.142C167.665 58.0322 166.543 59.3438 165.71 61.0767C164.876 62.8097 164.46 64.9356 164.46 67.4545C164.46 69.9735 164.881 72.0994 165.724 73.8324C166.567 75.5653 167.708 76.8769 169.147 77.767C170.586 78.6572 172.206 79.1023 174.005 79.1023C175.672 79.1023 177.139 78.7472 178.408 78.0369C179.687 77.3172 180.681 76.304 181.391 74.9972C182.111 73.6809 182.471 72.1326 182.471 70.3523L183.55 70.5795H174.8V67.4545H185.88V70.5795C185.88 72.9754 185.369 75.0587 184.346 76.8295C183.333 78.6004 181.931 79.9735 180.141 80.9489C178.361 81.9148 176.316 82.3977 174.005 82.3977C171.429 82.3977 169.166 81.7917 167.215 80.5795C165.274 79.3674 163.759 77.6439 162.67 75.4091C161.59 73.1742 161.05 70.5227 161.05 67.4545C161.05 65.1534 161.358 63.0843 161.974 61.2472C162.599 59.4006 163.479 57.8286 164.616 56.5312C165.752 55.2339 167.097 54.2396 168.65 53.5483C170.203 52.857 171.912 52.5114 173.778 52.5114C175.312 52.5114 176.742 52.7434 178.067 53.2074C179.403 53.6619 180.591 54.3106 181.633 55.1534C182.684 55.9867 183.56 56.9858 184.261 58.1506C184.961 59.3059 185.444 60.589 185.71 62H182.073ZM203.959 65.892V69.017H191.232V65.892H203.959ZM220.028 52.9091V82H216.505V56.6023H216.335L209.232 61.3182V57.7386L216.505 52.9091H220.028ZM228.394 82V79.4432L237.996 68.9318C239.123 67.7008 240.051 66.6307 240.781 65.7216C241.51 64.803 242.049 63.9413 242.4 63.1364C242.76 62.322 242.94 61.4697 242.94 60.5795C242.94 59.5568 242.693 58.6714 242.201 57.9233C241.718 57.1752 241.055 56.5975 240.212 56.1903C239.37 55.7831 238.423 55.5795 237.371 55.5795C236.254 55.5795 235.279 55.8116 234.445 56.2756C233.621 56.7301 232.982 57.3693 232.528 58.1932C232.083 59.017 231.86 59.983 231.86 61.0909H228.508C228.508 59.3864 228.901 57.8902 229.687 56.6023C230.473 55.3144 231.543 54.3106 232.897 53.5909C234.261 52.8712 235.79 52.5114 237.485 52.5114C239.19 52.5114 240.7 52.8712 242.016 53.5909C243.333 54.3106 244.365 55.2812 245.113 56.5028C245.861 57.7244 246.235 59.0833 246.235 60.5795C246.235 61.6496 246.041 62.696 245.653 63.7188C245.274 64.732 244.611 65.8636 243.664 67.1136C242.727 68.3542 241.424 69.8693 239.758 71.6591L233.224 78.6477V78.875H246.746V82H228.394ZM262.442 82.3977C260.567 82.3977 258.896 82.0758 257.428 81.4318C255.97 80.7879 254.81 79.893 253.948 78.7472C253.096 77.5919 252.632 76.2519 252.556 74.7273H256.136C256.211 75.6648 256.533 76.4744 257.102 77.1562C257.67 77.8286 258.413 78.3494 259.332 78.7188C260.25 79.0881 261.268 79.2727 262.386 79.2727C263.636 79.2727 264.744 79.0549 265.71 78.6193C266.675 78.1837 267.433 77.5777 267.982 76.8011C268.531 76.0246 268.806 75.125 268.806 74.1023C268.806 73.0322 268.541 72.09 268.011 71.2756C267.48 70.4517 266.704 69.8078 265.681 69.3438C264.658 68.8797 263.408 68.6477 261.931 68.6477H259.602V65.5227H261.931C263.086 65.5227 264.1 65.3144 264.971 64.8977C265.852 64.4811 266.538 63.8939 267.031 63.1364C267.532 62.3788 267.783 61.4886 267.783 60.4659C267.783 59.4811 267.566 58.6241 267.13 57.8949C266.694 57.1657 266.079 56.5975 265.283 56.1903C264.497 55.7831 263.569 55.5795 262.499 55.5795C261.496 55.5795 260.549 55.7642 259.658 56.1335C258.778 56.4934 258.058 57.0189 257.499 57.7102C256.941 58.392 256.638 59.2159 256.59 60.1818H253.181C253.238 58.6572 253.697 57.322 254.559 56.1761C255.421 55.0208 256.548 54.1212 257.94 53.4773C259.341 52.8333 260.88 52.5114 262.556 52.5114C264.355 52.5114 265.899 52.8759 267.187 53.6051C268.475 54.3248 269.464 55.2765 270.156 56.4602C270.847 57.6439 271.192 58.9223 271.192 60.2955C271.192 61.9337 270.762 63.3305 269.9 64.4858C269.048 65.6411 267.888 66.4413 266.42 66.8864V67.1136C268.257 67.4167 269.692 68.1979 270.724 69.4574C271.756 70.7074 272.272 72.2557 272.272 74.1023C272.272 75.6837 271.841 77.1042 270.979 78.3636C270.127 79.6136 268.962 80.5985 267.485 81.3182C266.008 82.0379 264.327 82.3977 262.442 82.3977ZM277.4 76.0341V73.1364L290.184 52.9091H292.286V57.3977H290.866L281.207 72.6818V72.9091H298.423V76.0341H277.4ZM291.093 82V75.1534V73.804V52.9091H294.445V82H291.093Z" fill="black"/>
<path d="M195.74 276V252.727H209.695V255.227H198.558V263.091H208.649V265.591H198.558V276H195.74ZM214.158 276V258.545H216.839V276H214.158ZM215.521 255.636C214.999 255.636 214.548 255.458 214.169 255.102C213.798 254.746 213.612 254.318 213.612 253.818C213.612 253.318 213.798 252.89 214.169 252.534C214.548 252.178 214.999 252 215.521 252C216.044 252 216.491 252.178 216.862 252.534C217.241 252.89 217.43 253.318 217.43 253.818C217.43 254.318 217.241 254.746 216.862 255.102C216.491 255.458 216.044 255.636 215.521 255.636ZM223.751 258.545L227.933 265.682L232.115 258.545H235.206L229.57 267.273L235.206 276H232.115L227.933 269.227L223.751 276H220.661L226.206 267.273L220.661 258.545H223.751ZM250.714 252.727V276H248.033V252.727H250.714ZM262.717 276.364C261.142 276.364 259.759 275.989 258.57 275.239C257.388 274.489 256.464 273.439 255.797 272.091C255.138 270.742 254.808 269.167 254.808 267.364C254.808 265.545 255.138 263.958 255.797 262.602C256.464 261.246 257.388 260.193 258.57 259.443C259.759 258.693 261.142 258.318 262.717 258.318C264.293 258.318 265.672 258.693 266.854 259.443C268.043 260.193 268.967 261.246 269.626 262.602C270.293 263.958 270.626 265.545 270.626 267.364C270.626 269.167 270.293 270.742 269.626 272.091C268.967 273.439 268.043 274.489 266.854 275.239C265.672 275.989 264.293 276.364 262.717 276.364ZM262.717 273.955C263.914 273.955 264.899 273.648 265.672 273.034C266.445 272.42 267.017 271.614 267.388 270.614C267.759 269.614 267.945 268.53 267.945 267.364C267.945 266.197 267.759 265.11 267.388 264.102C267.017 263.095 266.445 262.28 265.672 261.659C264.899 261.038 263.914 260.727 262.717 260.727C261.52 260.727 260.536 261.038 259.763 261.659C258.99 262.28 258.418 263.095 258.047 264.102C257.676 265.11 257.49 266.197 257.49 267.364C257.49 268.53 257.676 269.614 258.047 270.614C258.418 271.614 258.99 272.42 259.763 273.034C260.536 273.648 261.52 273.955 262.717 273.955ZM281.766 282.909C280.47 282.909 279.357 282.742 278.425 282.409C277.493 282.083 276.716 281.652 276.095 281.114C275.482 280.583 274.993 280.015 274.629 279.409L276.766 277.909C277.008 278.227 277.315 278.591 277.686 279C278.057 279.417 278.565 279.777 279.209 280.08C279.86 280.39 280.713 280.545 281.766 280.545C283.175 280.545 284.338 280.205 285.254 279.523C286.171 278.841 286.629 277.773 286.629 276.318V272.773H286.402C286.205 273.091 285.925 273.485 285.561 273.955C285.205 274.417 284.69 274.83 284.016 275.193C283.349 275.549 282.447 275.727 281.311 275.727C279.902 275.727 278.637 275.394 277.516 274.727C276.402 274.061 275.519 273.091 274.868 271.818C274.224 270.545 273.902 269 273.902 267.182C273.902 265.394 274.216 263.837 274.845 262.511C275.474 261.178 276.349 260.148 277.47 259.42C278.591 258.686 279.887 258.318 281.357 258.318C282.493 258.318 283.394 258.508 284.061 258.886C284.735 259.258 285.25 259.682 285.607 260.159C285.97 260.629 286.25 261.015 286.447 261.318H286.72V258.545H289.311V276.5C289.311 278 288.97 279.22 288.288 280.159C287.614 281.106 286.705 281.799 285.561 282.239C284.425 282.686 283.16 282.909 281.766 282.909ZM281.675 273.318C282.75 273.318 283.66 273.072 284.402 272.58C285.144 272.087 285.709 271.379 286.095 270.455C286.482 269.53 286.675 268.424 286.675 267.136C286.675 265.879 286.485 264.769 286.107 263.807C285.728 262.845 285.167 262.091 284.425 261.545C283.682 261 282.766 260.727 281.675 260.727C280.538 260.727 279.591 261.015 278.834 261.591C278.084 262.167 277.519 262.939 277.141 263.909C276.769 264.879 276.584 265.955 276.584 267.136C276.584 268.348 276.773 269.42 277.152 270.352C277.538 271.277 278.107 272.004 278.857 272.534C279.614 273.057 280.554 273.318 281.675 273.318ZM294.22 276V258.545H296.902V276H294.22ZM295.584 255.636C295.061 255.636 294.61 255.458 294.232 255.102C293.86 254.746 293.675 254.318 293.675 253.818C293.675 253.318 293.86 252.89 294.232 252.534C294.61 252.178 295.061 252 295.584 252C296.107 252 296.554 252.178 296.925 252.534C297.304 252.89 297.493 253.318 297.493 253.818C297.493 254.318 297.304 254.746 296.925 255.102C296.554 255.458 296.107 255.636 295.584 255.636ZM304.496 265.5V276H301.814V258.545H304.405V261.273H304.632C305.041 260.386 305.662 259.674 306.496 259.136C307.329 258.591 308.405 258.318 309.723 258.318C310.905 258.318 311.939 258.561 312.825 259.045C313.712 259.523 314.401 260.25 314.893 261.227C315.386 262.197 315.632 263.424 315.632 264.909V276H312.95V265.091C312.95 263.72 312.594 262.652 311.882 261.886C311.17 261.114 310.193 260.727 308.95 260.727C308.094 260.727 307.329 260.913 306.655 261.284C305.988 261.655 305.462 262.197 305.075 262.909C304.689 263.621 304.496 264.485 304.496 265.5ZM110.95 315.409C109.844 315.409 108.84 315.201 107.939 314.784C107.037 314.36 106.321 313.75 105.791 312.955C105.261 312.152 104.996 311.182 104.996 310.045C104.996 309.045 105.193 308.235 105.587 307.614C105.981 306.985 106.507 306.492 107.166 306.136C107.825 305.78 108.553 305.515 109.348 305.341C110.151 305.159 110.958 305.015 111.768 304.909C112.829 304.773 113.689 304.67 114.348 304.602C115.015 304.527 115.5 304.402 115.803 304.227C116.113 304.053 116.268 303.75 116.268 303.318V303.227C116.268 302.106 115.962 301.235 115.348 300.614C114.742 299.992 113.821 299.682 112.587 299.682C111.306 299.682 110.303 299.962 109.575 300.523C108.848 301.083 108.337 301.682 108.041 302.318L105.496 301.409C105.95 300.348 106.556 299.523 107.314 298.932C108.079 298.333 108.912 297.917 109.814 297.682C110.723 297.439 111.617 297.318 112.496 297.318C113.056 297.318 113.7 297.386 114.428 297.523C115.162 297.652 115.871 297.92 116.553 298.33C117.242 298.739 117.814 299.356 118.268 300.182C118.723 301.008 118.95 302.114 118.95 303.5V315H116.268V312.636H116.132C115.95 313.015 115.647 313.42 115.223 313.852C114.799 314.284 114.234 314.652 113.53 314.955C112.825 315.258 111.965 315.409 110.95 315.409ZM111.359 313C112.42 313 113.314 312.792 114.041 312.375C114.776 311.958 115.329 311.42 115.7 310.761C116.079 310.102 116.268 309.409 116.268 308.682V306.227C116.155 306.364 115.905 306.489 115.518 306.602C115.14 306.708 114.7 306.803 114.2 306.886C113.708 306.962 113.227 307.03 112.757 307.091C112.295 307.144 111.92 307.189 111.632 307.227C110.935 307.318 110.284 307.466 109.678 307.67C109.079 307.867 108.594 308.167 108.223 308.568C107.859 308.962 107.678 309.5 107.678 310.182C107.678 311.114 108.022 311.818 108.712 312.295C109.409 312.765 110.291 313 111.359 313ZM134.845 307.864V297.545H137.527V315H134.845V312.045H134.663C134.254 312.932 133.618 313.686 132.754 314.307C131.891 314.92 130.8 315.227 129.482 315.227C128.391 315.227 127.421 314.989 126.572 314.511C125.724 314.027 125.057 313.299 124.572 312.33C124.088 311.352 123.845 310.121 123.845 308.636V297.545H126.527V308.455C126.527 309.727 126.883 310.742 127.595 311.5C128.315 312.258 129.232 312.636 130.345 312.636C131.012 312.636 131.69 312.466 132.379 312.125C133.076 311.784 133.66 311.261 134.129 310.557C134.607 309.852 134.845 308.955 134.845 307.864ZM150.03 297.545V299.818H140.984V297.545H150.03ZM143.621 293.364H146.303V310C146.303 310.758 146.412 311.326 146.632 311.705C146.859 312.076 147.147 312.326 147.496 312.455C147.852 312.576 148.227 312.636 148.621 312.636C148.916 312.636 149.159 312.621 149.348 312.591C149.537 312.553 149.689 312.523 149.803 312.5L150.348 314.909C150.166 314.977 149.912 315.045 149.587 315.114C149.261 315.189 148.848 315.227 148.348 315.227C147.59 315.227 146.848 315.064 146.121 314.739C145.401 314.413 144.803 313.917 144.325 313.25C143.856 312.583 143.621 311.742 143.621 310.727V293.364ZM157.121 304.5V315H154.439V291.727H157.121V300.273H157.348C157.757 299.371 158.371 298.655 159.189 298.125C160.015 297.587 161.113 297.318 162.484 297.318C163.674 297.318 164.715 297.557 165.609 298.034C166.503 298.504 167.196 299.227 167.689 300.205C168.189 301.174 168.439 302.409 168.439 303.909V315H165.757V304.091C165.757 302.705 165.397 301.633 164.678 300.875C163.965 300.11 162.977 299.727 161.712 299.727C160.833 299.727 160.045 299.913 159.348 300.284C158.659 300.655 158.113 301.197 157.712 301.909C157.318 302.621 157.121 303.485 157.121 304.5ZM180.663 315.364C178.982 315.364 177.531 314.992 176.311 314.25C175.099 313.5 174.163 312.455 173.504 311.114C172.853 309.765 172.527 308.197 172.527 306.409C172.527 304.621 172.853 303.045 173.504 301.682C174.163 300.311 175.08 299.242 176.254 298.477C177.436 297.705 178.815 297.318 180.391 297.318C181.3 297.318 182.197 297.47 183.084 297.773C183.97 298.076 184.777 298.568 185.504 299.25C186.232 299.924 186.811 300.818 187.243 301.932C187.675 303.045 187.891 304.417 187.891 306.045V307.182H174.436V304.864H185.163C185.163 303.879 184.966 303 184.572 302.227C184.186 301.455 183.633 300.845 182.913 300.398C182.201 299.951 181.36 299.727 180.391 299.727C179.322 299.727 178.398 299.992 177.618 300.523C176.845 301.045 176.25 301.727 175.834 302.568C175.417 303.409 175.209 304.311 175.209 305.273V306.818C175.209 308.136 175.436 309.254 175.891 310.17C176.353 311.08 176.993 311.773 177.811 312.25C178.629 312.72 179.58 312.955 180.663 312.955C181.368 312.955 182.004 312.856 182.572 312.659C183.148 312.455 183.644 312.152 184.061 311.75C184.478 311.341 184.8 310.833 185.027 310.227L187.618 310.955C187.345 311.833 186.887 312.606 186.243 313.273C185.599 313.932 184.804 314.447 183.857 314.818C182.91 315.182 181.845 315.364 180.663 315.364ZM194.652 304.5V315H191.97V297.545H194.561V300.273H194.788C195.197 299.386 195.819 298.674 196.652 298.136C197.485 297.591 198.561 297.318 199.879 297.318C201.061 297.318 202.095 297.561 202.982 298.045C203.868 298.523 204.557 299.25 205.05 300.227C205.542 301.197 205.788 302.424 205.788 303.909V315H203.107V304.091C203.107 302.72 202.75 301.652 202.038 300.886C201.326 300.114 200.349 299.727 199.107 299.727C198.25 299.727 197.485 299.913 196.811 300.284C196.144 300.655 195.618 301.197 195.232 301.909C194.845 302.621 194.652 303.485 194.652 304.5ZM218.28 297.545V299.818H209.234V297.545H218.28ZM211.871 293.364H214.553V310C214.553 310.758 214.662 311.326 214.882 311.705C215.109 312.076 215.397 312.326 215.746 312.455C216.102 312.576 216.477 312.636 216.871 312.636C217.166 312.636 217.409 312.621 217.598 312.591C217.787 312.553 217.939 312.523 218.053 312.5L218.598 314.909C218.416 314.977 218.162 315.045 217.837 315.114C217.511 315.189 217.098 315.227 216.598 315.227C215.84 315.227 215.098 315.064 214.371 314.739C213.651 314.413 213.053 313.917 212.575 313.25C212.106 312.583 211.871 311.742 211.871 310.727V293.364ZM222.314 315V297.545H224.996V315H222.314ZM223.678 294.636C223.155 294.636 222.704 294.458 222.325 294.102C221.954 293.746 221.768 293.318 221.768 292.818C221.768 292.318 221.954 291.89 222.325 291.534C222.704 291.178 223.155 291 223.678 291C224.2 291 224.647 291.178 225.018 291.534C225.397 291.89 225.587 292.318 225.587 292.818C225.587 293.318 225.397 293.746 225.018 294.102C224.647 294.458 224.2 294.636 223.678 294.636ZM236.999 315.364C235.362 315.364 233.953 314.977 232.771 314.205C231.589 313.432 230.68 312.367 230.044 311.011C229.408 309.655 229.089 308.106 229.089 306.364C229.089 304.591 229.415 303.027 230.067 301.67C230.726 300.307 231.643 299.242 232.817 298.477C233.999 297.705 235.377 297.318 236.953 297.318C238.18 297.318 239.286 297.545 240.271 298C241.256 298.455 242.063 299.091 242.692 299.909C243.321 300.727 243.711 301.682 243.862 302.773H241.18C240.976 301.977 240.521 301.273 239.817 300.659C239.12 300.038 238.18 299.727 236.999 299.727C235.953 299.727 235.036 300 234.249 300.545C233.468 301.083 232.858 301.845 232.419 302.83C231.987 303.807 231.771 304.955 231.771 306.273C231.771 307.621 231.983 308.795 232.408 309.795C232.839 310.795 233.446 311.572 234.226 312.125C235.014 312.678 235.938 312.955 236.999 312.955C237.696 312.955 238.328 312.833 238.896 312.591C239.464 312.348 239.946 312 240.339 311.545C240.733 311.091 241.014 310.545 241.18 309.909H243.862C243.711 310.939 243.336 311.867 242.737 312.693C242.146 313.511 241.362 314.163 240.385 314.648C239.415 315.125 238.286 315.364 236.999 315.364ZM252.919 315.409C251.813 315.409 250.809 315.201 249.908 314.784C249.006 314.36 248.29 313.75 247.76 312.955C247.23 312.152 246.964 311.182 246.964 310.045C246.964 309.045 247.161 308.235 247.555 307.614C247.949 306.985 248.476 306.492 249.135 306.136C249.794 305.78 250.521 305.515 251.317 305.341C252.12 305.159 252.927 305.015 253.737 304.909C254.798 304.773 255.658 304.67 256.317 304.602C256.983 304.527 257.468 304.402 257.771 304.227C258.082 304.053 258.237 303.75 258.237 303.318V303.227C258.237 302.106 257.93 301.235 257.317 300.614C256.711 299.992 255.79 299.682 254.555 299.682C253.275 299.682 252.271 299.962 251.544 300.523C250.817 301.083 250.305 301.682 250.01 302.318L247.464 301.409C247.919 300.348 248.525 299.523 249.283 298.932C250.048 298.333 250.881 297.917 251.783 297.682C252.692 297.439 253.586 297.318 254.464 297.318C255.025 297.318 255.669 297.386 256.396 297.523C257.131 297.652 257.839 297.92 258.521 298.33C259.211 298.739 259.783 299.356 260.237 300.182C260.692 301.008 260.919 302.114 260.919 303.5V315H258.237V312.636H258.101C257.919 313.015 257.616 313.42 257.192 313.852C256.768 314.284 256.203 314.652 255.499 314.955C254.794 315.258 253.934 315.409 252.919 315.409ZM253.328 313C254.389 313 255.283 312.792 256.01 312.375C256.745 311.958 257.298 311.42 257.669 310.761C258.048 310.102 258.237 309.409 258.237 308.682V306.227C258.124 306.364 257.874 306.489 257.487 306.602C257.108 306.708 256.669 306.803 256.169 306.886C255.677 306.962 255.196 307.03 254.726 307.091C254.264 307.144 253.889 307.189 253.601 307.227C252.904 307.318 252.252 307.466 251.646 307.67C251.048 307.867 250.563 308.167 250.192 308.568C249.828 308.962 249.646 309.5 249.646 310.182C249.646 311.114 249.991 311.818 250.68 312.295C251.377 312.765 252.26 313 253.328 313ZM273.405 297.545V299.818H264.359V297.545H273.405ZM266.996 293.364H269.678V310C269.678 310.758 269.787 311.326 270.007 311.705C270.234 312.076 270.522 312.326 270.871 312.455C271.227 312.576 271.602 312.636 271.996 312.636C272.291 312.636 272.534 312.621 272.723 312.591C272.912 312.553 273.064 312.523 273.178 312.5L273.723 314.909C273.541 314.977 273.287 315.045 272.962 315.114C272.636 315.189 272.223 315.227 271.723 315.227C270.965 315.227 270.223 315.064 269.496 314.739C268.776 314.413 268.178 313.917 267.7 313.25C267.231 312.583 266.996 311.742 266.996 310.727V293.364ZM277.439 315V297.545H280.121V315H277.439ZM278.803 294.636C278.28 294.636 277.829 294.458 277.45 294.102C277.079 293.746 276.893 293.318 276.893 292.818C276.893 292.318 277.079 291.89 277.45 291.534C277.829 291.178 278.28 291 278.803 291C279.325 291 279.772 291.178 280.143 291.534C280.522 291.89 280.712 292.318 280.712 292.818C280.712 293.318 280.522 293.746 280.143 294.102C279.772 294.458 279.325 294.636 278.803 294.636ZM292.124 315.364C290.548 315.364 289.165 314.989 287.976 314.239C286.794 313.489 285.87 312.439 285.203 311.091C284.544 309.742 284.214 308.167 284.214 306.364C284.214 304.545 284.544 302.958 285.203 301.602C285.87 300.246 286.794 299.193 287.976 298.443C289.165 297.693 290.548 297.318 292.124 297.318C293.699 297.318 295.078 297.693 296.26 298.443C297.449 299.193 298.374 300.246 299.033 301.602C299.699 302.958 300.033 304.545 300.033 306.364C300.033 308.167 299.699 309.742 299.033 311.091C298.374 312.439 297.449 313.489 296.26 314.239C295.078 314.989 293.699 315.364 292.124 315.364ZM292.124 312.955C293.321 312.955 294.305 312.648 295.078 312.034C295.851 311.42 296.423 310.614 296.794 309.614C297.165 308.614 297.351 307.53 297.351 306.364C297.351 305.197 297.165 304.11 296.794 303.102C296.423 302.095 295.851 301.28 295.078 300.659C294.305 300.038 293.321 299.727 292.124 299.727C290.927 299.727 289.942 300.038 289.169 300.659C288.396 301.28 287.824 302.095 287.453 303.102C287.082 304.11 286.896 305.197 286.896 306.364C286.896 307.53 287.082 308.614 287.453 309.614C287.824 310.614 288.396 311.42 289.169 312.034C289.942 312.648 290.927 312.955 292.124 312.955ZM306.808 304.5V315H304.126V297.545H306.717V300.273H306.945C307.354 299.386 307.975 298.674 308.808 298.136C309.642 297.591 310.717 297.318 312.036 297.318C313.217 297.318 314.251 297.561 315.138 298.045C316.024 298.523 316.714 299.25 317.206 300.227C317.698 301.197 317.945 302.424 317.945 303.909V315H315.263V304.091C315.263 302.72 314.907 301.652 314.195 300.886C313.482 300.114 312.505 299.727 311.263 299.727C310.407 299.727 309.642 299.913 308.967 300.284C308.301 300.655 307.774 301.197 307.388 301.909C307.001 302.621 306.808 303.485 306.808 304.5ZM331.845 315V297.545H334.527V315H331.845ZM333.209 294.636C332.686 294.636 332.235 294.458 331.857 294.102C331.485 293.746 331.3 293.318 331.3 292.818C331.3 292.318 331.485 291.89 331.857 291.534C332.235 291.178 332.686 291 333.209 291C333.732 291 334.179 291.178 334.55 291.534C334.929 291.89 335.118 292.318 335.118 292.818C335.118 293.318 334.929 293.746 334.55 294.102C334.179 294.458 333.732 294.636 333.209 294.636ZM351.803 301.455L349.393 302.136C349.242 301.735 349.018 301.345 348.723 300.966C348.435 300.58 348.041 300.261 347.541 300.011C347.041 299.761 346.401 299.636 345.621 299.636C344.553 299.636 343.662 299.883 342.95 300.375C342.246 300.86 341.893 301.477 341.893 302.227C341.893 302.894 342.136 303.42 342.621 303.807C343.106 304.193 343.863 304.515 344.893 304.773L347.484 305.409C349.045 305.788 350.208 306.367 350.973 307.148C351.738 307.92 352.121 308.917 352.121 310.136C352.121 311.136 351.833 312.03 351.257 312.818C350.689 313.606 349.893 314.227 348.871 314.682C347.848 315.136 346.659 315.364 345.303 315.364C343.522 315.364 342.049 314.977 340.882 314.205C339.715 313.432 338.977 312.303 338.666 310.818L341.212 310.182C341.454 311.121 341.912 311.826 342.587 312.295C343.268 312.765 344.159 313 345.257 313C346.507 313 347.5 312.735 348.234 312.205C348.977 311.667 349.348 311.023 349.348 310.273C349.348 309.667 349.136 309.159 348.712 308.75C348.287 308.333 347.636 308.023 346.757 307.818L343.848 307.136C342.25 306.758 341.075 306.17 340.325 305.375C339.583 304.572 339.212 303.568 339.212 302.364C339.212 301.379 339.488 300.508 340.041 299.75C340.602 298.992 341.363 298.398 342.325 297.966C343.295 297.534 344.393 297.318 345.621 297.318C347.348 297.318 348.704 297.697 349.689 298.455C350.681 299.212 351.386 300.212 351.803 301.455ZM368.521 301.455L366.112 302.136C365.961 301.735 365.737 301.345 365.442 300.966C365.154 300.58 364.76 300.261 364.26 300.011C363.76 299.761 363.12 299.636 362.339 299.636C361.271 299.636 360.381 299.883 359.669 300.375C358.964 300.86 358.612 301.477 358.612 302.227C358.612 302.894 358.855 303.42 359.339 303.807C359.824 304.193 360.582 304.515 361.612 304.773L364.203 305.409C365.764 305.788 366.927 306.367 367.692 307.148C368.457 307.92 368.839 308.917 368.839 310.136C368.839 311.136 368.552 312.03 367.976 312.818C367.408 313.606 366.612 314.227 365.589 314.682C364.567 315.136 363.377 315.364 362.021 315.364C360.241 315.364 358.768 314.977 357.601 314.205C356.434 313.432 355.696 312.303 355.385 310.818L357.93 310.182C358.173 311.121 358.631 311.826 359.305 312.295C359.987 312.765 360.877 313 361.976 313C363.226 313 364.218 312.735 364.953 312.205C365.696 311.667 366.067 311.023 366.067 310.273C366.067 309.667 365.855 309.159 365.43 308.75C365.006 308.333 364.355 308.023 363.476 307.818L360.567 307.136C358.968 306.758 357.794 306.17 357.044 305.375C356.302 304.572 355.93 303.568 355.93 302.364C355.93 301.379 356.207 300.508 356.76 299.75C357.321 298.992 358.082 298.398 359.044 297.966C360.014 297.534 361.112 297.318 362.339 297.318C364.067 297.318 365.423 297.697 366.408 298.455C367.4 299.212 368.105 300.212 368.521 301.455ZM383.876 307.864V297.545H386.558V315H383.876V312.045H383.695C383.286 312.932 382.649 313.686 381.786 314.307C380.922 314.92 379.831 315.227 378.513 315.227C377.422 315.227 376.452 314.989 375.604 314.511C374.755 314.027 374.089 313.299 373.604 312.33C373.119 311.352 372.876 310.121 372.876 308.636V297.545H375.558V308.455C375.558 309.727 375.914 310.742 376.626 311.5C377.346 312.258 378.263 312.636 379.376 312.636C380.043 312.636 380.721 312.466 381.411 312.125C382.107 311.784 382.691 311.261 383.161 310.557C383.638 309.852 383.876 308.955 383.876 307.864ZM398.788 315.364C397.107 315.364 395.656 314.992 394.436 314.25C393.224 313.5 392.288 312.455 391.629 311.114C390.978 309.765 390.652 308.197 390.652 306.409C390.652 304.621 390.978 303.045 391.629 301.682C392.288 300.311 393.205 299.242 394.379 298.477C395.561 297.705 396.94 297.318 398.516 297.318C399.425 297.318 400.322 297.47 401.209 297.773C402.095 298.076 402.902 298.568 403.629 299.25C404.357 299.924 404.936 300.818 405.368 301.932C405.8 303.045 406.016 304.417 406.016 306.045V307.182H392.561V304.864H403.288C403.288 303.879 403.091 303 402.697 302.227C402.311 301.455 401.758 300.845 401.038 300.398C400.326 299.951 399.485 299.727 398.516 299.727C397.447 299.727 396.523 299.992 395.743 300.523C394.97 301.045 394.375 301.727 393.959 302.568C393.542 303.409 393.334 304.311 393.334 305.273V306.818C393.334 308.136 393.561 309.254 394.016 310.17C394.478 311.08 395.118 311.773 395.936 312.25C396.754 312.72 397.705 312.955 398.788 312.955C399.493 312.955 400.129 312.856 400.697 312.659C401.273 312.455 401.769 312.152 402.186 311.75C402.603 311.341 402.925 310.833 403.152 310.227L405.743 310.955C405.47 311.833 405.012 312.606 404.368 313.273C403.724 313.932 402.929 314.447 401.982 314.818C401.035 315.182 399.97 315.364 398.788 315.364Z" fill="black"/>
</svg>
